# xmcd
#
# Track frame offsets: 
#        150
#        12643
#        25887
#        40540
#        53464
#        69971
#        84273
#        100258
#        112973
#        126082
#        144991
#        159320
#        169885
#        180822
#        194725
#        207346
#        220436
#        238343
#        250705
#        265367
#        278357
#        291134
#
# Disc length: 4061 seconds
#
# Revision: 2
# Processed by: cddbd v1.5.2PL0 Copyright (c) Steve Scherf et al.
# Submitted via: ExactAudioCopyFreeDBPlugin 1.0
#
DISCID=2f0fdb16
DTITLE=Various Artist - Holland Dozier Holland:  The Complete 45s Col
DTITLE=lection (Invictus, Hot Wax, Music Merchant), 1969-1977 [Harmles
DTITLE=s box set]
DYEAR=2014
DGENRE=Soul
TTITLE0=The Honey Cone - While You're Out Looking for Sugar
TTITLE1=The Flaming Ember - Mind, Body and Soul
TTITLE2=The Honey Cone - Girls it Ain't Easy
TTITLE3=100 Proof Aged in Soul - Too Many Cooks (Spoil the Soup)
TTITLE4=The Flaming Ember - Shades of Green
TTITLE5=The Honey Cone - Take My Love
TTITLE6=The Flaming Ember - Westbound #9
TTITLE7=100 Proof Aged in Soul - Somebody's Been Sleeping
TTITLE8=The Honey Cone - When Will it End
TTITLE9=The Flaming Ember - I'm Not My Brother's Keeper
TTITLE10=Laura Lee - Wedlock is a Padlock
TTITLE11=The Silent Majority - Frightened Girl
TTITLE12=100 Proof Aged in Soul - One Man's Leftovers (Is Another Man'
TTITLE12=s Feast)
TTITLE13=The Flaming Ember - Stop the World and Let Me Off
TTITLE14=The Honey Cone - Want Ads
TTITLE15=McKinley Jackson and The Politicians - Love Machine (Part 1)
TTITLE16=The Flaming Ember - Sunshine
TTITLE17=100 Proof Aged in Soul - Driveway
TTITLE18=Laura Lee - Women's Love Rights
TTITLE19=The Honey Cone - Stick Up
TTITLE20=100 Proof Aged in Soul - 90 Day Freeze (On Her Love)
TTITLE21=The Flaming Ember - If It's Good to You (It's Good for You)
EXTD=
EXTT0=
EXTT1=
EXTT2=
EXTT3=
EXTT4=
EXTT5=
EXTT6=
EXTT7=
EXTT8=
EXTT9=
EXTT10=
EXTT11=
EXTT12=
EXTT13=
EXTT14=
EXTT15=
EXTT16=
EXTT17=
EXTT18=
EXTT19=
EXTT20=
EXTT21=
PLAYORDER=
